<svg width="78" height="39" viewBox="0 0 78 39" fill="none" xmlns="http://www.w3.org/2000/svg">
<path d="M15.5455 13.5455C15.4091 12.3939 14.8561 11.5 13.8864 10.8636C12.9167 10.2273 11.7273 9.90909 10.3182 9.90909C9.28788 9.90909 8.38636 10.0758 7.61364 10.4091C6.84849 10.7424 6.25 11.2008 5.81818 11.7841C5.39394 12.3674 5.18182 13.0303 5.18182 13.7727C5.18182 14.3939 5.32955 14.928 5.625 15.375C5.92803 15.8144 6.31439 16.1818 6.78409 16.4773C7.25379 16.7652 7.74621 17.0038 8.26136 17.1932C8.77652 17.375 9.25 17.5227 9.68182 17.6364L12.0455 18.2727C12.6515 18.4318 13.3258 18.6515 14.0682 18.9318C14.8182 19.2121 15.5341 19.5947 16.2159 20.0795C16.9053 20.5568 17.4735 21.1705 17.9205 21.9205C18.3674 22.6705 18.5909 23.5909 18.5909 24.6818C18.5909 25.9394 18.2614 27.0758 17.6023 28.0909C16.9508 29.1061 15.9962 29.9129 14.7386 30.5114C13.4886 31.1098 11.9697 31.4091 10.1818 31.4091C8.51515 31.4091 7.07197 31.1402 5.85227 30.6023C4.64015 30.0644 3.68561 29.3144 2.98864 28.3523C2.29924 27.3902 1.90909 26.2727 1.81818 25H4.72727C4.80303 25.8788 5.09848 26.6061 5.61364 27.1818C6.13636 27.75 6.79545 28.1742 7.59091 28.4545C8.39394 28.7273 9.25758 28.8636 10.1818 28.8636C11.2576 28.8636 12.2235 28.6894 13.0795 28.3409C13.9356 27.9848 14.6136 27.4924 15.1136 26.8636C15.6136 26.2273 15.8636 25.4848 15.8636 24.6364C15.8636 23.8636 15.6477 23.2348 15.2159 22.75C14.7841 22.2652 14.2159 21.8712 13.5114 21.5682C12.8068 21.2652 12.0455 21 11.2273 20.7727L8.36364 19.9545C6.54545 19.4318 5.10606 18.6856 4.04545 17.7159C2.98485 16.7462 2.45455 15.4773 2.45455 13.9091C2.45455 12.6061 2.80682 11.4697 3.51136 10.5C4.22348 9.52273 5.17803 8.76515 6.375 8.22727C7.57955 7.68182 8.92424 7.40909 10.4091 7.40909C11.9091 7.40909 13.2424 7.67803 14.4091 8.21591C15.5758 8.74621 16.5 9.47348 17.1818 10.3977C17.8712 11.322 18.2348 12.3712 18.2727 13.5455H15.5455ZM23.2244 7.72727H26.5881L34.4972 27.0455H34.7699L42.679 7.72727H46.0426V31H43.4062V13.3182H43.179L35.9062 31H33.3608L26.0881 13.3182H25.8608V31H23.2244V7.72727ZM51.6932 7.72727H55.0568L62.9659 27.0455H63.2386L71.1477 7.72727H74.5114V31H71.875V13.3182H71.6477L64.375 31H61.8295L54.5568 13.3182H54.3295V31H51.6932V7.72727Z" fill="#2C2C2C"/>
<line y1="37" x2="46" y2="37" stroke="#2C2C2C" stroke-width="2"/>
</svg>
